<svg xmlns="http://www.w3.org/2000/svg" width="56" height="49" viewBox="0 0 56 49">
  <metadata><?xpacket begin="﻿" id="W5M0MpCehiHzreSzNTczkc9d"?>
<x:xmpmeta xmlns:x="adobe:ns:meta/" x:xmptk="Adobe XMP Core 5.6-c138 79.159824, 2016/09/14-01:09:01        ">
   <rdf:RDF xmlns:rdf="http://www.w3.org/1999/02/22-rdf-syntax-ns#">
      <rdf:Description rdf:about=""/>
   </rdf:RDF>
</x:xmpmeta>
                                                                                                    
                                                                                                    
                                                                                                    
                                                                                                    
                                                                                                    
                                                                                                    
                                                                                                    
                                                                                                    
                                                                                                    
                                                                                                    
                                                                                                    
                                                                                                    
                                                                                                    
                                                                                                    
                                                                                                    
                                                                                                    
                                                                                                    
                                                                                                    
                                                                                                    
                                                                                                    
                           
<?xpacket end="w"?></metadata>
<defs>
    <style>
      .cls-1 {
        fill: #001d3b;
        fill-rule: evenodd;
      }
    </style>
  </defs>
  <path id="customers" class="cls-1" d="M711.578,97.278c-2.522,0-2.8-1.167-2.8-1.75a9.712,9.712,0,0,0,5.606-9.236V85.611a8.549,8.549,0,0,0-8.409-8.75H694.761a0.9,0.9,0,0,0-.934.972,8.927,8.927,0,0,0,2.242,5.931,14.658,14.658,0,0,0-.373,2.819,9.849,9.849,0,0,0,5.605,8.945c0,0.583-.28,1.75-2.8,1.75a4.723,4.723,0,0,0-4.671,4.861V107H695.7v-4.861a2.81,2.81,0,0,1,2.8-2.917c2.9,0,4.672-1.458,4.672-3.889V94.847a0.929,0.929,0,0,0-.654-0.875,7.866,7.866,0,0,1-4.952-7.389,6.179,6.179,0,0,1,.094-1.361,8.218,8.218,0,0,0,4.577,1.361h10.277a7.642,7.642,0,0,1-4.951,7.292,0.928,0.928,0,0,0-.654.875v0.583c0,2.431,1.775,3.889,4.671,3.889a2.811,2.811,0,0,1,2.8,2.917V107h1.868v-4.861A4.722,4.722,0,0,0,711.578,97.278Zm-9.343-12.639a6.628,6.628,0,0,1-6.446-5.833h10.183a6.628,6.628,0,0,1,6.447,5.833H702.235Zm16.724-9.722V67.722a3.692,3.692,0,0,0-3.644-3.889H696.63V61.889A3.827,3.827,0,0,0,692.893,58H666.734A3.826,3.826,0,0,0,663,61.889V73.945q0,6.125,4.2,8.75l0.934-1.653c-2.149-1.458-3.27-3.695-3.27-7.1V61.889a1.913,1.913,0,0,1,1.869-1.944h26.159a1.913,1.913,0,0,1,1.868,1.944v9.139a1.913,1.913,0,0,1-1.868,1.944h-16.63a5.922,5.922,0,0,0-5.792,5.25v0.583h1.868V78.417a3.982,3.982,0,0,1,3.924-3.5h16.63a3.827,3.827,0,0,0,3.737-3.889h11.211a4.722,4.722,0,0,1,4.671,4.861h1.869a6.635,6.635,0,0,0-6.54-6.806H696.63V65.778h18.685a1.913,1.913,0,0,1,1.869,1.944v7.195a8.72,8.72,0,0,1-1.682,5.639l1.4,1.264A10.056,10.056,0,0,0,718.959,74.917ZM686.353,98.25a2.825,2.825,0,0,1-2.8-2.722,9.89,9.89,0,0,0,4.858-12.833,9.22,9.22,0,0,0-12.332-5.056,9.892,9.892,0,0,0-4.858,12.833,9.682,9.682,0,0,0,4.858,5.056,2.824,2.824,0,0,1-2.8,2.722,4.723,4.723,0,0,0-4.671,4.861V107h1.869v-3.889a2.81,2.81,0,0,1,2.8-2.917,4.723,4.723,0,0,0,4.672-4.861V94.847a0.928,0.928,0,0,0-.654-0.875,7.8,7.8,0,0,1-4.952-6.319h2.8a1.3,1.3,0,0,0,.561-0.195l2.242-1.555,2.242,1.555a1.3,1.3,0,0,0,.561.195h6.446a7.641,7.641,0,0,1-4.952,6.319,0.929,0.929,0,0,0-.654.875v0.486a4.723,4.723,0,0,0,4.672,4.861,2.81,2.81,0,0,1,2.8,2.917V107h1.869v-3.889A4.591,4.591,0,0,0,686.353,98.25Zm-5.325-12.639-2.523-1.75a0.977,0.977,0,0,0-1.027,0l-2.616,1.75h-2.429a7.4,7.4,0,0,1,8.315-6.708,7.594,7.594,0,0,1,6.446,6.708h-6.166Z" transform="translate(-663 -58)"/>
</svg>
