<svg xmlns="http://www.w3.org/2000/svg" width="77" height="48.969" viewBox="0 0 77 48.969">
  <metadata><?xpacket begin="﻿" id="W5M0MpCehiHzreSzNTczkc9d"?>
<x:xmpmeta xmlns:x="adobe:ns:meta/" x:xmptk="Adobe XMP Core 5.6-c138 79.159824, 2016/09/14-01:09:01        ">
   <rdf:RDF xmlns:rdf="http://www.w3.org/1999/02/22-rdf-syntax-ns#">
      <rdf:Description rdf:about=""/>
   </rdf:RDF>
</x:xmpmeta>
                                                                                                    
                                                                                                    
                                                                                                    
                                                                                                    
                                                                                                    
                                                                                                    
                                                                                                    
                                                                                                    
                                                                                                    
                                                                                                    
                                                                                                    
                                                                                                    
                                                                                                    
                                                                                                    
                                                                                                    
                                                                                                    
                                                                                                    
                                                                                                    
                                                                                                    
                                                                                                    
                           
<?xpacket end="w"?></metadata>
<defs>
    <style>
      .cls-1 {
        fill: #001d3b;
        fill-rule: evenodd;
      }
    </style>
  </defs>
  <path id="visitors" class="cls-1" d="M312.594,79.555a8.791,8.791,0,1,0-10.086,0,15.225,15.225,0,0,0-5.195,3.052,19.7,19.7,0,0,0-7.13-3.892,11.137,11.137,0,1,0-11.518,0,19.856,19.856,0,0,0-7.054,3.846,15.347,15.347,0,0,0-5.135-2.991,8.791,8.791,0,1,0-10.085,0A15.455,15.455,0,0,0,246,94.176v1.007a0.065,0.065,0,0,0,.061.061h18.633a20.5,20.5,0,0,0-.168,2.579v1.038a8.109,8.109,0,0,0,8.106,8.119h23.615a8.108,8.108,0,0,0,8.1-8.119V97.824a20.5,20.5,0,0,0-.168-2.579h18.755A0.065,0.065,0,0,0,323,95.184V94.176A15.514,15.514,0,0,0,312.594,79.555Zm-11.4-7.219a6.353,6.353,0,1,1,6.475,6.364h-0.244A6.35,6.35,0,0,1,301.2,72.336Zm-25.5-3.175a8.7,8.7,0,1,1,9.2,8.7h-1A8.721,8.721,0,0,1,275.694,69.161Zm-20.659,3.175A6.353,6.353,0,1,1,261.51,78.7h-0.244A6.36,6.36,0,0,1,255.035,72.336ZM265.12,92.787H248.468A13.026,13.026,0,0,1,261.3,81.142h0.183a12.87,12.87,0,0,1,8.3,3.1A20.051,20.051,0,0,0,265.12,92.787Zm36.764,6.075a5.682,5.682,0,0,1-5.668,5.678H272.6a5.681,5.681,0,0,1-5.667-5.678V97.824a17.517,17.517,0,0,1,16.957-17.506c0.167,0.015.35,0.015,0.518,0.015s0.35,0,.518-0.015a17.518,17.518,0,0,1,16.957,17.506v1.038Zm1.813-6.074A20,20,0,0,0,299.08,84.3a12.931,12.931,0,0,1,8.38-3.159h0.183a13.026,13.026,0,0,1,12.828,11.645H303.7Z" transform="translate(-246 -58)"/>
</svg>
