<svg xmlns="http://www.w3.org/2000/svg" width="45" height="50" viewBox="0 0 45 50">
  <metadata><?xpacket begin="﻿" id="W5M0MpCehiHzreSzNTczkc9d"?>
<x:xmpmeta xmlns:x="adobe:ns:meta/" x:xmptk="Adobe XMP Core 5.6-c138 79.159824, 2016/09/14-01:09:01        ">
   <rdf:RDF xmlns:rdf="http://www.w3.org/1999/02/22-rdf-syntax-ns#">
      <rdf:Description rdf:about=""/>
   </rdf:RDF>
</x:xmpmeta>
                                                                                                    
                                                                                                    
                                                                                                    
                                                                                                    
                                                                                                    
                                                                                                    
                                                                                                    
                                                                                                    
                                                                                                    
                                                                                                    
                                                                                                    
                                                                                                    
                                                                                                    
                                                                                                    
                                                                                                    
                                                                                                    
                                                                                                    
                                                                                                    
                                                                                                    
                                                                                                    
                           
<?xpacket end="w"?></metadata>
<defs>
    <style>
      .cls-1 {
        fill:#001d3b;
        fill-rule: evenodd;
      }
    </style>
  </defs>
  <path id="new_orders" class="cls-1" d="M463.894,63.424a1.248,1.248,0,1,0-1.767,1.764l2.965,3.015a1.237,1.237,0,0,0,.883.369h0a1.231,1.231,0,0,0,.873-0.369l9.026-9.064a1.269,1.269,0,0,0,.01-1.774,1.229,1.229,0,0,0-1.756,0L471.4,60.1a7.748,7.748,0,0,0-5.594-2.389,7.865,7.865,0,1,0,7.462,10.141,1.247,1.247,0,1,0-2.386-.728,5.31,5.31,0,1,1-5.076-6.9,5.3,5.3,0,0,1,3.827,1.661l-3.645,3.66ZM465.8,74.488a7.865,7.865,0,1,0,7.787,7.865A7.834,7.834,0,0,0,465.8,74.488Zm0,13.217a5.353,5.353,0,1,1,5.3-5.352A5.33,5.33,0,0,1,465.8,87.7Zm7.787,11.433A7.788,7.788,0,1,0,465.8,107,7.834,7.834,0,0,0,473.59,99.137ZM465.8,104.5a5.353,5.353,0,1,1,5.3-5.353A5.329,5.329,0,0,1,465.8,104.5Zm35.95-23.409H477.559a1.261,1.261,0,0,0,0,2.522h24.194A1.261,1.261,0,0,0,501.753,81.091Zm0-16.765H477.559a1.261,1.261,0,0,0,0,2.522h24.194A1.261,1.261,0,0,0,501.753,64.326Zm0,33.56H477.559a1.261,1.261,0,0,0,0,2.523h24.194A1.261,1.261,0,0,0,501.753,97.886Z" transform="translate(-458 -57)"/>
</svg>
