<svg xmlns="http://www.w3.org/2000/svg" width="54.344" height="58.876" viewBox="0 0 54.344 58.876">
  <metadata><?xpacket begin="﻿" id="W5M0MpCehiHzreSzNTczkc9d"?>
<x:xmpmeta xmlns:x="adobe:ns:meta/" x:xmptk="Adobe XMP Core 5.6-c138 79.159824, 2016/09/14-01:09:01        ">
   <rdf:RDF xmlns:rdf="http://www.w3.org/1999/02/22-rdf-syntax-ns#">
      <rdf:Description rdf:about=""/>
   </rdf:RDF>
</x:xmpmeta>
                                                                                                    
                                                                                                    
                                                                                                    
                                                                                                    
                                                                                                    
                                                                                                    
                                                                                                    
                                                                                                    
                                                                                                    
                                                                                                    
                                                                                                    
                                                                                                    
                                                                                                    
                                                                                                    
                                                                                                    
                                                                                                    
                                                                                                    
                                                                                                    
                                                                                                    
                                                                                                    
                           
<?xpacket end="w"?></metadata>
<defs>
    <style>
      .cls-1 {
        fill: #001d3b;
        fill-rule: evenodd;
      }
    </style>
  </defs>
  <path id="sales" class="cls-1" d="M71.186,56.79l-2.281.547-0.982-4.1a5.129,5.129,0,0,0-6.163-3.809L44.443,53.567h0a3.758,3.758,0,0,0-2.348,1.714L22.485,87.495a5.162,5.162,0,0,0,1.7,7.067L45,107.419a5.09,5.09,0,0,0,7.023-1.685L64.372,85.452a1.184,1.184,0,0,0-.389-1.622,1.167,1.167,0,0,0-1.612.387L50.027,104.5a2.753,2.753,0,0,1-3.8.912L25.4,92.554a2.793,2.793,0,0,1-.917-3.824L44.093,56.517a1.438,1.438,0,0,1,.9-0.656h0l17.316-4.144a2.775,2.775,0,0,1,3.334,2.061l2.3,9.611L62.81,64.621a1.631,1.631,0,0,1-1.245-.2,4.3,4.3,0,0,0,1.1-1.209,4.372,4.372,0,0,0-1.434-5.978,4.3,4.3,0,0,0-5.941,1.425,4.372,4.372,0,0,0,1.434,5.978,4.288,4.288,0,0,0,2.417.64,3.992,3.992,0,0,0,4.221,1.641l5.132-1.231,1.316,5.5a1.453,1.453,0,0,1-.173,1.1l-2.373,3.9a1.185,1.185,0,0,0,.389,1.622,1.167,1.167,0,0,0,1.611-.386l2.373-3.9a3.808,3.808,0,0,0,.451-2.883l-1.316-5.5,2.286-.548A4.01,4.01,0,0,0,71.186,56.79Zm-13.9,3.1a1.97,1.97,0,0,1,2.718-.652,1.993,1.993,0,0,1,.391.32,4.014,4.014,0,0,0-1.954,3.285,1.961,1.961,0,0,1-.5-0.218A2,2,0,0,1,57.288,59.891Zm15.218,2.4-2.284.548-0.769-3.211,2.283-.548A1.651,1.651,0,0,1,72.506,62.295ZM39.864,85.265a1.173,1.173,0,0,0,1.3.576,1.161,1.161,0,0,0,.3-0.115l10.912-6.083a1.179,1.179,0,0,0-1.141-2.063L40.317,83.663A1.181,1.181,0,0,0,39.864,85.265Zm5.512,0.278a3.466,3.466,0,1,0,4.752-1.14A3.465,3.465,0,0,0,45.377,85.543Zm3.9,2.407a1.118,1.118,0,1,1-.369-1.538A1.125,1.125,0,0,1,49.275,87.95Zm-0.22-10.51a3.5,3.5,0,0,0-1.147-4.782,3.44,3.44,0,0,0-4.752,1.14A3.5,3.5,0,0,0,44.3,78.58,3.444,3.444,0,0,0,49.055,77.44Zm-3.9-2.407a1.107,1.107,0,0,1,1.529-.367,1.125,1.125,0,0,1,.369,1.538,1.108,1.108,0,0,1-1.529.367A1.126,1.126,0,0,1,45.156,75.033Zm-12.92,9.556a1.167,1.167,0,0,0-1.612.387l-2.456,4.035a1.184,1.184,0,0,0,.389,1.622L46.5,101.708a1.166,1.166,0,0,0,1.611-.386L64.5,74.4a1.185,1.185,0,0,0-.389-1.622L46.169,61.7a1.166,1.166,0,0,0-1.611.387L35.514,76.942a1.185,1.185,0,0,0,.389,1.622,1.167,1.167,0,0,0,1.611-.387l8.432-13.853,15.938,9.84L46.718,99.082,30.78,89.242l1.845-3.031A1.185,1.185,0,0,0,32.236,84.589Zm33.306-4.918a1.177,1.177,0,0,0-.725.529,1.184,1.184,0,0,0,.389,1.622,1.166,1.166,0,0,0,1.611-.387,1.184,1.184,0,0,0-.389-1.622A1.178,1.178,0,0,0,65.542,79.671ZM35.069,82.193a1.166,1.166,0,1,0-.725.529A1.169,1.169,0,0,0,35.069,82.193Z" transform="translate(-21.75 -49.313)"/>
</svg>
